<svg width="24" height="24" viewBox="0 0 24 24" fill="none" xmlns="http://www.w3.org/2000/svg">
<g transform="translate(1.25, 1.75)">
<path d="M0.75 8.75C0.75 7.97921 0.76346 7.22679 0.78909 6.5003C0.87282 4.12683 0.91469 2.94009 1.88007 1.96745C2.84545 0.99481 4.0657 0.9426 6.5062 0.83819C7.84517 0.7809 9.2709 0.75 10.75 0.75C12.2291 0.75 13.6548 0.7809 14.9938 0.83819C17.4343 0.9426 18.6546 0.99481 19.6199 1.96745C20.5853 2.94009 20.6272 4.12683 20.7109 6.5003C20.7365 7.22679 20.75 7.97921 20.75 8.75C20.75 9.5208 20.7365 10.2732 20.7109 10.9997C20.6272 13.3732 20.5853 14.5599 19.6199 15.5326C18.6546 16.5052 17.4343 16.5574 14.9937 16.6618C14.2598 16.6932 13.4998 16.7167 12.7193 16.7315C11.9782 16.7455 11.6076 16.7526 11.282 16.8766C10.9564 17.0006 10.6825 17.2355 10.1345 17.7053L7.95503 19.5742C7.82273 19.6876 7.65419 19.75 7.47991 19.75C7.07679 19.75 6.75 19.4232 6.75 19.0201V16.6719C6.66842 16.6686 6.58715 16.6653 6.50619 16.6618C4.06569 16.5574 2.84545 16.5052 1.88007 15.5325C0.91469 14.5599 0.87282 13.3732 0.78909 10.9997C0.76346 10.2732 0.75 9.5208 0.75 8.75Z" stroke="currentColor" stroke-width="1.5" stroke-linecap="round" stroke-linejoin="round"/>
</g>
</svg>
