<svg viewBox="0 0 40 40" fill="none" xmlns="http://www.w3.org/2000/svg">
<path d="M21.7315 30.8062V29.4943H19.2482M19.2482 29.4943V30.8062M19.2482 29.4943H18.6274C18.4136 29.4943 18.2203 29.4513 18.0269 29.376M18.0371 29.3868C17.3043 29.118 16.7751 28.3975 16.7751 27.5373M18.0371 29.3868C17.3043 29.1287 16.7751 28.3975 16.7751 27.5373M18.0371 29.3868C18.2305 29.4513 18.4238 29.505 18.6376 29.505H22.3523M16.7751 27.5373V23.5694C16.8057 21.408 15.9915 19.3219 14.5361 17.8165C12.6024 15.8917 11.605 13.1282 11.8595 10.3324C11.89 9.94533 11.9613 9.56895 12.0325 9.20335H7.48326C6.10933 9.20335 5 10.3754 5 11.8271V29.5158C5 30.9675 6.10933 32.1395 7.48326 32.1395H13.6812C14.068 32.1395 14.4343 32.3331 14.6684 32.6664L19.5433 39.5269C19.7774 39.828 20.1336 40 20.5 40C20.8664 40 21.2226 39.828 21.4567 39.5269L26.3316 32.6664C26.5657 32.3331 26.932 32.1395 27.3188 32.1395H33.5167C34.8907 32.1395 36 30.9675 36 29.5158V11.8271C36 10.3754 34.8907 9.20335 33.5167 9.20335H28.9675C29.0998 9.83778 29.1711 10.4937 29.1812 11.1712C29.1812 13.7089 28.1839 16.1283 26.4334 17.8595C24.9984 19.322 24.1943 21.3543 24.2249 23.4619V27.5373C24.2249 28.3975 23.6957 29.1287 22.9629 29.3868M16.7751 27.5373V24.9135H24.2147V27.5373C24.2147 28.3975 23.6855 29.118 22.9527 29.3868M22.9527 29.3868C22.7593 29.4513 22.566 29.505 22.3523 29.505M22.9527 29.3868C22.7593 29.4621 22.566 29.505 22.3523 29.505M22.3523 29.505H21.7315V30.8169M28.9573 9.19262C28.133 5.22475 24.8762 2.20313 20.8867 2.00958C16.6224 1.80527 12.9179 4.89141 12.0223 9.19262C11.9409 9.55822 11.8798 9.93456 11.8493 10.3217C11.605 13.1175 12.5922 15.881 14.5259 17.8058C15.9915 19.3219 16.7955 21.3973 16.7649 23.5586V24.9028H24.2045V23.4404C24.174 21.3328 24.978 19.3004 26.413 17.838C28.1737 16.1068 29.171 13.6874 29.1609 11.1496C29.1609 10.4722 29.0795 9.81628 28.9471 9.18185L28.9573 9.19262Z" stroke="currentColor" stroke-width="1.5" stroke-linecap="round" stroke-linejoin="round"/>
</svg>
