<svg viewBox="0 0 26 31" fill="none" xmlns="http://www.w3.org/2000/svg">
<path d="M13.5187 22.7337V21.7325H11.6236M11.6236 21.7325V22.7337M11.6236 21.7325H11.1498C10.9867 21.7325 10.8392 21.6997 10.6916 21.6423M10.6994 21.6505C10.1402 21.4453 9.73628 20.8955 9.73628 20.239M10.6994 21.6505C10.1402 21.4535 9.73628 20.8955 9.73628 20.239M10.6994 21.6505C10.8469 21.6997 10.9945 21.7407 11.1576 21.7407H13.9925M9.73628 20.239V17.2109C9.75958 15.5615 9.13822 13.9694 8.02756 12.8206C6.55185 11.3516 5.79069 9.24264 5.98487 7.10902C6.00817 6.81359 6.06255 6.52636 6.11691 6.24735H2.64512C1.59659 6.24735 0.75 7.14183 0.75 8.24968V21.749C0.75 22.8568 1.59659 23.7513 2.64512 23.7513H7.37514C7.67029 23.7513 7.94989 23.899 8.12853 24.1534L11.8489 29.389C12.0275 29.6188 12.2993 29.7501 12.5789 29.7501C12.8585 29.7501 13.1304 29.6188 13.309 29.389L17.0294 24.1534C17.208 23.899 17.4876 23.7513 17.7827 23.7513H22.5128C23.5613 23.7513 24.4079 22.8568 24.4079 21.749V8.24968C24.4079 7.14183 23.5613 6.24735 22.5128 6.24735H19.041C19.142 6.73152 19.1963 7.23211 19.2041 7.74911C19.2041 9.68578 18.4429 11.5322 17.107 12.8534C16.0119 13.9694 15.3983 15.5204 15.4216 17.1288V20.239C15.4216 20.8955 15.0177 21.4535 14.4585 21.6505M9.73628 20.239V18.2367H15.4139V20.239C15.4139 20.8955 15.01 21.4453 14.4508 21.6505M14.4508 21.6505C14.3032 21.6997 14.1556 21.7407 13.9925 21.7407M14.4508 21.6505C14.3032 21.7079 14.1556 21.7407 13.9925 21.7407M13.9925 21.7407H13.5187V22.7419M19.0332 6.23916C18.4041 3.21105 15.9187 0.905075 12.8741 0.757363C9.61976 0.601444 6.79262 2.95666 6.10914 6.23916C6.047 6.51817 6.00039 6.80538 5.97709 7.1008C5.79069 9.23443 6.54408 11.3434 8.01978 12.8123C9.13821 13.9694 9.75181 15.5532 9.7285 17.2027V18.2285H15.4061V17.1124C15.3828 15.504 15.9964 13.953 17.0915 12.837C18.4352 11.5158 19.1963 9.66935 19.1886 7.73267C19.1886 7.21568 19.1264 6.71511 19.0255 6.23094L19.0332 6.23916Z" stroke="currentColor" stroke-width="1.5" stroke-linecap="round" stroke-linejoin="round"/>
</svg>
