<svg preserveAspectRatio="none" width="100%" height="100%" overflow="visible" style="display: block;" viewBox="0 0 63 63" fill="none" xmlns="http://www.w3.org/2000/svg">
<g id="Frame 2399">
<g id="Vector">
<path d="M33.5899 28.2207C33.5899 28.7984 33.7598 29.3761 34.0487 29.8688C33.42 30.8713 33.42 32.1457 34.0487 33.1651C33.7428 33.6579 33.5899 34.2356 33.5899 34.8133C33.5899 35.7648 34.0147 36.6653 34.7453 37.277C34.0147 37.8887 33.5899 38.7892 33.5899 39.7407C33.5899 41.151 34.5074 42.3913 35.8497 42.8331C35.4759 43.3768 35.272 44.0225 35.272 44.6682C35.323 46.5202 36.8692 47.9984 38.7213 47.9474C40.5223 47.8965 41.9496 46.4522 42.0005 44.6682C42.0005 44.4982 41.9835 44.3453 41.9495 44.1924C42.4762 44.4982 43.071 44.6682 43.6826 44.6682C45.5177 44.6851 47.0299 43.2239 47.0469 41.3719C47.0469 40.7772 46.877 40.1825 46.5542 39.6727C46.7241 39.7067 46.8769 39.7237 47.0469 39.7237C48.8819 39.7407 50.3941 38.2795 50.4111 36.4274C50.4111 35.7648 50.2072 35.1191 49.8334 34.5924C51.5495 34.0487 52.484 32.2136 51.9403 30.5145C51.6175 29.512 50.8359 28.7304 49.8334 28.4076C50.2072 27.8639 50.4111 27.2182 50.4111 26.5726C50.3941 24.7375 48.8819 23.2593 47.0469 23.2763C46.8769 23.2763 46.7241 23.2933 46.5542 23.3273C46.877 22.8175 47.0469 22.2398 47.0469 21.6282C47.0299 19.7931 45.5177 18.3149 43.6826 18.3319C43.071 18.3319 42.4762 18.5018 41.9495 18.8076C41.9835 18.6547 42.0005 18.4848 42.0005 18.3319C41.9496 16.4798 40.4033 15.0016 38.5513 15.0526C36.7502 15.1035 35.323 16.5478 35.272 18.3319C35.272 18.9945 35.4759 19.6402 35.8497 20.1669C34.5074 20.6087 33.6069 21.849 33.5899 23.2593C33.5899 24.2108 34.0147 25.1113 34.7453 25.723C34.0147 26.3347 33.5899 27.2352 33.5899 28.1867V28.2207Z" fill="var(--fill-0, #C9A101)"/>
<path d="M28.3057 25.757C29.0363 25.1453 29.4611 24.2448 29.4611 23.2933C29.4611 21.883 28.5435 20.6426 27.2012 20.2009C27.5751 19.6572 27.779 19.0115 27.779 18.3659C27.728 16.5138 26.1818 15.0356 24.3297 15.0865C22.5287 15.1375 21.1014 16.5818 21.0505 18.3659C21.0505 18.5358 21.0674 18.6887 21.1014 18.8416C20.5746 18.5358 19.98 18.3659 19.3683 18.3659C17.5333 18.3489 16.021 19.8101 16.004 21.6621C16.004 22.2568 16.174 22.8515 16.4968 23.3612C16.3269 23.3272 16.1739 23.3103 16.004 23.3103C14.169 23.2933 12.6568 24.7545 12.6398 26.6065C12.6398 27.2692 12.8437 27.9149 13.2175 28.4416C11.5014 28.9853 10.5669 30.8203 11.1107 32.5195C11.4335 33.5219 12.2151 34.3035 13.2175 34.6264C12.8437 35.1701 12.6398 35.8158 12.6398 36.4614C12.6568 38.2965 14.169 39.7747 16.004 39.7577C16.1739 39.7577 16.3269 39.7407 16.4968 39.7067C16.174 40.2165 16.004 40.7942 16.004 41.4059C16.021 43.2409 17.5333 44.7191 19.3683 44.7021C19.98 44.7021 20.5746 44.5322 21.1014 44.2264C21.0674 44.3793 21.0505 44.5492 21.0505 44.7021C21.1014 46.5542 22.6476 48.0324 24.4996 47.9814C26.3007 47.9305 27.728 46.4862 27.779 44.7021C27.779 44.0395 27.5751 43.3938 27.2012 42.8671C28.5435 42.4253 29.4441 41.185 29.4611 39.7747C29.4611 38.8232 29.0363 37.9227 28.3057 37.311C29.0363 36.6993 29.4611 35.7988 29.4611 34.8473C29.4611 34.2696 29.2912 33.6919 29.0023 33.1991C29.631 32.1966 29.631 30.9223 29.0023 29.9028C29.3081 29.4101 29.4611 28.8324 29.4611 28.2547C29.4611 27.3032 29.0363 26.4027 28.3057 25.791V25.757Z" fill="var(--fill-0, #C9A101)"/>
<path d="M60.3 35.6119V27.3881L55.6104 26.2157C54.9817 23.3612 53.8604 20.6596 52.2802 18.1959L54.7609 14.0501L48.9499 8.23911L44.8041 10.7198C42.3573 9.13965 39.6388 8.01822 36.7843 7.38955L35.6119 2.7H27.3881L26.2157 7.38955C23.3612 8.01822 20.6597 9.13965 18.1959 10.7198L14.0501 8.23911L8.23914 14.0501L10.7198 18.1959C9.1396 20.6426 8.01825 23.3612 7.38958 26.2157L2.7 27.3881V35.6119L7.38958 36.7842C8.01825 39.6388 9.1396 42.3404 10.7198 44.8041L8.23914 48.9499L14.0501 54.7609L18.1959 52.2802C20.6427 53.8603 23.3612 54.9818 26.2157 55.6105L27.3881 60.3H35.6119L36.7843 55.6105C39.6388 54.9818 42.3403 53.8603 44.8041 52.2802L48.9499 54.7609L54.7609 48.9499L52.2802 44.8041C53.8604 42.3573 54.9817 39.6388 55.6104 36.7842L60.3 35.6119Z" stroke="var(--stroke-0, #FFFDF6)" stroke-width="1.5" stroke-linecap="round" stroke-linejoin="round"/>
<path d="M33.5899 28.2207C33.5899 28.7984 33.7598 29.3761 34.0487 29.8688C33.42 30.8713 33.42 32.1457 34.0487 33.1651C33.7428 33.6579 33.5899 34.2356 33.5899 34.8133C33.5899 35.7648 34.0147 36.6653 34.7453 37.277C34.0147 37.8887 33.5899 38.7892 33.5899 39.7407C33.5899 41.151 34.5074 42.3913 35.8497 42.8331C35.4759 43.3768 35.272 44.0225 35.272 44.6682C35.323 46.5202 36.8692 47.9984 38.7213 47.9474C40.5223 47.8965 41.9496 46.4522 42.0005 44.6682C42.0005 44.4982 41.9835 44.3453 41.9495 44.1924C42.4762 44.4982 43.071 44.6682 43.6826 44.6682C45.5177 44.6851 47.0299 43.2239 47.0469 41.3719C47.0469 40.7772 46.877 40.1825 46.5542 39.6727C46.7241 39.7067 46.8769 39.7237 47.0469 39.7237C48.8819 39.7407 50.3941 38.2795 50.4111 36.4274C50.4111 35.7648 50.2072 35.1191 49.8334 34.5924C51.5495 34.0487 52.484 32.2136 51.9403 30.5145C51.6175 29.512 50.8359 28.7304 49.8334 28.4076C50.2072 27.8639 50.4111 27.2182 50.4111 26.5726C50.3941 24.7375 48.8819 23.2593 47.0469 23.2763C46.8769 23.2763 46.7241 23.2933 46.5542 23.3273C46.877 22.8175 47.0469 22.2398 47.0469 21.6282C47.0299 19.7931 45.5177 18.3149 43.6826 18.3319C43.071 18.3319 42.4762 18.5018 41.9495 18.8076C41.9835 18.6547 42.0005 18.4848 42.0005 18.3319C41.9496 16.4798 40.4033 15.0016 38.5513 15.0526C36.7502 15.1035 35.323 16.5478 35.272 18.3319C35.272 18.9945 35.4759 19.6402 35.8497 20.1669C34.5074 20.6087 33.6069 21.849 33.5899 23.2593C33.5899 24.2108 34.0147 25.1113 34.7453 25.723C34.0147 26.3347 33.5899 27.2352 33.5899 28.1867V28.2207Z" stroke="var(--stroke-0, #FFFDF6)" stroke-width="1.5" stroke-linecap="round" stroke-linejoin="round"/>
<path d="M28.3057 25.757C29.0363 25.1453 29.4611 24.2448 29.4611 23.2933C29.4611 21.883 28.5435 20.6426 27.2012 20.2009C27.5751 19.6572 27.779 19.0115 27.779 18.3659C27.728 16.5138 26.1818 15.0356 24.3297 15.0865C22.5287 15.1375 21.1014 16.5818 21.0505 18.3659C21.0505 18.5358 21.0674 18.6887 21.1014 18.8416C20.5746 18.5358 19.98 18.3659 19.3683 18.3659C17.5333 18.3489 16.021 19.8101 16.004 21.6621C16.004 22.2568 16.174 22.8515 16.4968 23.3612C16.3269 23.3272 16.1739 23.3103 16.004 23.3103C14.169 23.2933 12.6568 24.7545 12.6398 26.6065C12.6398 27.2692 12.8437 27.9149 13.2175 28.4416C11.5014 28.9853 10.5669 30.8203 11.1107 32.5195C11.4335 33.5219 12.2151 34.3035 13.2175 34.6264C12.8437 35.1701 12.6398 35.8158 12.6398 36.4614C12.6568 38.2965 14.169 39.7747 16.004 39.7577C16.1739 39.7577 16.3269 39.7407 16.4968 39.7067C16.174 40.2165 16.004 40.7942 16.004 41.4059C16.021 43.2409 17.5333 44.7191 19.3683 44.7021C19.98 44.7021 20.5746 44.5322 21.1014 44.2264C21.0674 44.3793 21.0505 44.5492 21.0505 44.7021C21.1014 46.5542 22.6476 48.0324 24.4996 47.9814C26.3007 47.9305 27.728 46.4862 27.779 44.7021C27.779 44.0395 27.5751 43.3938 27.2012 42.8671C28.5435 42.4253 29.4441 41.185 29.4611 39.7747C29.4611 38.8232 29.0363 37.9227 28.3057 37.311C29.0363 36.6993 29.4611 35.7988 29.4611 34.8473C29.4611 34.2696 29.2912 33.6919 29.0023 33.1991C29.631 32.1966 29.631 30.9223 29.0023 29.9028C29.3081 29.4101 29.4611 28.8324 29.4611 28.2547C29.4611 27.3032 29.0363 26.4027 28.3057 25.791V25.757Z" stroke="var(--stroke-0, #FFFDF6)" stroke-width="1.5" stroke-linecap="round" stroke-linejoin="round"/>
</g>
</g>
</svg>
