<svg preserveAspectRatio="none" width="100%" height="100%" overflow="visible" style="display: block;" viewBox="0 0 63 63" fill="none" xmlns="http://www.w3.org/2000/svg">
<g id="Frame 2394">
<path id="Vector" d="M42.9522 20.1537C44.906 19.4804 46.9737 19.2834 49.0088 19.5625M42.9522 20.1537V20.1373L35.9513 14.6358M42.9522 20.1537L35.9514 14.6523H35.9188L32.3858 17.0499L28.7713 14.6851L16.0556 24.7027C16.2509 24.8998 16.5115 25.0148 16.7882 25.0148H36.5538C36.9771 24.4071 37.4493 23.8323 37.9865 23.3068C39.4356 21.8452 41.1614 20.8106 42.9849 20.1701L42.9522 20.1537ZM42.9522 20.1537C41.1287 20.7942 39.4192 21.8288 37.9539 23.2904C37.4166 23.8324 36.9445 24.4071 36.5211 24.9983C33.737 28.9561 33.2975 34.2277 35.5606 38.6453L34.5023 44.8365C34.4534 45.1157 34.6488 45.3785 34.9419 45.4277C34.9907 45.4277 35.0395 45.4277 35.0884 45.4277L41.2265 44.3603C46.29 46.9879 52.4443 46.0025 56.4657 41.9462C61.5781 36.7896 61.5781 28.4306 56.4657 23.2576L56.482 23.2904C54.3818 21.1719 51.7441 19.9402 49.0088 19.5625M49.0088 19.5625V5.86629M49.0088 5.86629L35.9513 14.6358M49.0088 5.86629L37.1235 13.7983L35.9024 14.6194L32.695 16.8364L32.3694 17.0499L28.7549 14.6851M49.0088 5.86629V4.6182C49.0088 4.05984 48.553 3.6 47.9994 3.6H16.7718C16.2183 3.6 15.7624 4.05984 15.7624 4.6182V6.22759L27.4361 13.8311L28.7549 14.6851M49.0088 5.86629L37.1235 13.7819L35.9187 14.603L35.9513 14.6358M35.9513 14.6358L35.9187 14.6687M35.9513 14.6358L35.9024 14.603L32.7114 16.82M15.7624 6.21115V23.9801C15.7624 24.2429 15.8601 24.5056 16.0392 24.6863L28.7549 14.6687M15.7624 6.21115L28.7549 14.6687M15.7624 6.21115L27.4361 13.8147L28.7549 14.6687M15.7624 6.21115L28.7549 14.6851M28.7549 14.6687V14.6851M28.6958 14.633L32.3197 16.9949M35.9187 14.6687L32.3858 17.0335L32.7114 16.82M35.9187 14.6687L32.7114 16.82M35.8563 14.5542L35.9076 14.5946M52.2651 30.5819H42.187M54.2678 34.5233H40.1681M36.8304 52.982L31.9623 48.0717C31.5878 47.6776 30.9692 47.6612 30.5621 48.0389L26.9313 51.4219C24.5868 52.243 20.0118 50.0424 15.9903 45.9861C11.9689 41.9298 9.80343 37.3315 10.5849 34.9503L13.9389 31.2881C14.3134 30.894 14.3134 30.2863 13.9389 29.9086L9.07079 24.9983C8.69631 24.6042 8.06137 24.6042 7.67062 24.9983L4.26778 28.5456C0.620765 33.4723 3.50256 43.1779 11.1873 50.88C18.8558 58.5821 28.3804 61.5052 33.3137 57.8102L36.8141 54.3779C37.2049 54.0002 37.2049 53.3597 36.8141 52.9656L36.8304 52.982Z" stroke="var(--stroke-0, #FFFDF6)" stroke-width="1.5" stroke-linecap="round" stroke-linejoin="round"/>
</g>
</svg>
