<svg preserveAspectRatio="none" width="100%" height="100%" overflow="visible" style="display: block;" viewBox="0 0 63 63" fill="none" xmlns="http://www.w3.org/2000/svg">
<g id="Frame 2394">
<path id="Vector" d="M58.932 8.12719L60.0033 5.6543C60.2073 5.19384 60.2584 4.71631 60.2074 4.25584C60.1053 3.31786 59.5101 2.46513 58.5749 2.05583C58.2688 1.91939 57.9627 1.85122 57.6397 1.83416C56.5343 1.76595 55.4461 2.39696 54.9869 3.48843L53.9156 5.96127M58.932 8.12719L53.9156 5.96127M58.932 8.12719L58.949 8.12718L60.2243 8.68995L52.0281 27.7396L48.5762 26.2388L44.444 24.4481L52.2832 6.21706C52.4702 5.7566 52.9974 5.55196 53.4565 5.75661L53.9156 5.96127M12.9173 17.4388H22.9501M26.7762 17.4388H38.7815M13.1554 30.9116H21.1986M24.5655 30.9116H37.9993M13.1554 26.7845H26.164M29.5309 26.7845H37.9993M13.1554 22.4357H19.209M22.593 22.4357H37.9993M13.1554 40.3426H26.164M29.5309 40.3426H32.7788M13.1554 35.9938H19.209M22.593 35.9938H32.8468M26.419 55.6232C25.1437 55.6232 24.5145 54.6682 24.0894 54.0201C23.6983 53.4232 23.5282 53.2186 23.2562 53.2186C22.9841 53.2186 22.8311 53.4062 22.423 54.0201C21.9978 54.6511 21.3687 55.6232 20.0933 55.6232C18.818 55.6232 18.1888 54.6682 17.7636 54.0201C17.3725 53.4232 17.2025 53.2186 16.9304 53.2186C16.6583 53.2186 16.5053 53.4062 16.0972 54.0201C15.6721 54.6511 15.0429 55.6232 13.7676 55.6232M13.8016 55.6232C15.0769 55.6232 15.7061 54.6682 16.1312 54.0201C16.5223 53.4232 16.6923 53.2186 16.9644 53.2186C17.2365 53.2186 17.3896 53.4062 17.7977 54.0201C18.2228 54.6511 18.852 55.6232 20.1273 55.6232C21.4027 55.6232 22.0318 54.6682 22.4569 54.0201C22.8481 53.4232 23.0181 53.2186 23.2902 53.2186C23.5622 53.2186 23.7153 53.4062 24.1234 54.0201C24.5485 54.6511 25.1777 55.6232 26.4531 55.6232M41.8423 51.3597L36.1457 56.7318C35.4315 57.3969 34.2752 56.9023 34.2752 55.9132V48.0682L48.5762 14.8295V5.55196C48.5762 3.47134 46.8927 1.8 44.8351 1.8H8.24105C6.16648 1.8 4.5 3.48839 4.5 5.55196V57.448C4.5 59.5287 6.18348 61.2 8.24105 61.2H44.8351C46.9097 61.2 48.5762 59.5116 48.5762 57.448V35.7209L41.8423 51.3426V51.3597ZM16.1312 10.924V7.70081C16.1312 7.30856 16.4373 7.00158 16.8284 7.00158H36.0267C36.4178 7.00158 36.7239 7.30856 36.7239 7.70081V10.924C36.7239 11.3163 36.4178 11.6233 36.0267 11.6233H16.8284C16.4373 11.6233 16.1312 11.3163 16.1312 10.924ZM52.0111 27.7396L48.5592 26.2388L44.427 24.4481L34.2582 48.0853V55.9302C34.2582 56.9023 35.4315 57.4139 36.1287 56.7488L41.8253 51.3767L52.0111 27.7396Z" stroke="var(--stroke-0, #FFFDF6)" stroke-width="1.5" stroke-linecap="round" stroke-linejoin="round"/>
</g>
</svg>
