<svg preserveAspectRatio="none" width="100%" height="100%" overflow="visible" style="display: block;" viewBox="0 0 63 63" fill="none" xmlns="http://www.w3.org/2000/svg">
<g id="Frame 2398">
<path id="Vector" d="M43.692 41.917L49.5368 57.0948L40.1097 51.3442L35.4903 60.3L30.6825 44.2738M30.6825 44.2738L26.1575 60.3L21.5382 51.3442L12.2053 57.0948L18.3329 41.0686M30.6825 44.2738L36.5273 47.2905L40.3925 42.0113L46.9915 41.7285L47.6514 35.2237L53.2134 31.6414L50.5738 25.608L53.5905 19.7632L48.3113 15.898L48.0285 9.29899L41.5238 8.63912L37.9414 3.07707L31.908 5.71667L26.0632 2.7L22.198 7.97919L15.599 8.262L15.0334 14.6725L9.47134 18.2548L12.0167 24.3825L9 30.2273L14.2792 34.0925L14.562 40.6915L21.0668 41.3514L24.6491 46.9134L30.6825 44.2738ZM30.7768 24.7596H32.3794M33.982 24.7596H35.4903M27.6658 24.7596H29.2684M31.3424 12.41C24.4606 12.41 18.9928 17.972 18.9928 24.7596C18.9928 31.5471 24.4606 37.2034 31.3424 37.2034C38.2242 37.2034 43.692 31.6414 43.692 24.8538C43.692 18.0663 38.2242 12.41 31.3424 12.41Z" stroke="var(--stroke-0, white)" stroke-width="1.5" stroke-linecap="round" stroke-linejoin="round"/>
</g>
</svg>
