<svg width="64" height="56" viewBox="0 0 64 56" fill="none" xmlns="http://www.w3.org/2000/svg">
<path d="M50.4158 55.1772C46.2144 55.1772 42.76 53.8235 40.0525 51.116C37.4384 48.4085 36.1313 44.4406 36.1313 39.2123C36.1313 32.5835 38.1853 25.5813 42.2932 18.2057C46.4012 10.8301 51.3961 4.7615 57.2779 0L62.0394 4.34136C60.4522 6.11525 59.0051 8.35596 57.698 11.0635C56.391 13.771 55.2706 16.6652 54.337 19.7462C53.4967 22.8271 52.9832 25.9548 52.7965 29.1291C56.1576 29.6893 58.8651 31.1831 60.919 33.6105C62.973 35.9446 64 38.7455 64 42.0131C64 45.841 62.7396 49.0153 60.2188 51.5361C57.698 53.9635 54.4303 55.1772 50.4158 55.1772ZM14.2845 55.1772C9.98979 55.1772 6.53538 53.8235 3.92122 51.116C1.30708 48.4085 0 44.4406 0 39.2123C0 32.5835 2.00729 25.5813 6.02188 18.2057C10.1298 10.8301 15.1714 4.7615 21.1466 0L25.9081 4.34136C24.4143 6.11525 22.9672 8.35596 21.5667 11.0635C20.2597 13.771 19.1393 16.6652 18.2057 19.7462C17.3654 22.8271 16.8519 25.9548 16.6652 29.1291C20.0263 29.6893 22.7338 31.1831 24.7877 33.6105C26.8417 35.9446 27.8687 38.7455 27.8687 42.0131C27.8687 45.841 26.6083 49.0153 24.0875 51.5361C21.6601 53.9635 18.3924 55.1772 14.2845 55.1772Z" fill="currentColor"/>
</svg>



